<?xml version="1.0" encoding="UTF-8" standalone="no"?>
<svg xmlns:dc="http://purl.org/dc/elements/1.1/" xmlns:cc="http://creativecommons.org/ns#" xmlns:rdf="http://www.w3.org/1999/02/22-rdf-syntax-ns#" xmlns:svg="http://www.w3.org/2000/svg" xmlns="http://www.w3.org/2000/svg" width="600" height="720" viewBox="0 0 158.75 190.50001" version="1.1" id="svg37919">
  <defs id="defs37913" />
  <metadata id="metadata37916">
    <rdf:RDF>
      <cc:Work rdf:about="">
        <dc:format>image/svg+xml</dc:format>
        <dc:type rdf:resource="http://purl.org/dc/dcmitype/StillImage" />
        <dc:title></dc:title>
      </cc:Work>
    </rdf:RDF>
  </metadata>
  <g id="layer1" transform="translate(0,-106.49998)" style="opacity:1">
    <path style="display:inline;fill:#000000;stroke:none;stroke-width:0.01457808" d="m 83.507125,108.61671 c -12.580881,0.8018 -25.001409,5.10236 -35.92039,12.43518 -15.015427,10.07346 -25.540801,24.65155 -28.500152,39.50661 -0.656014,3.2655 -1.589011,10.07346 -2.332493,16.91057 l -0.335296,3.13429 -3.659098,9.1842 c -9.0238345,22.72723 -11.2542814,28.38353 -11.4146401,29.01037 -0.2186715,0.88928 -0.087466,2.27419 0.3061396,3.35296 0.4664984,1.19541 1.9097287,2.65322 3.1342874,3.14888 0.8601072,0.34987 0.962154,0.34987 6.2394191,0.3936 l 5.350158,0.0438 v 9.86936 c 0,5.42305 0.07289,10.75863 0.14578,11.8374 0.61228,7.90132 4.271378,14.91338 10.365017,19.81161 3.965239,3.1926 8.601069,5.20438 13.674241,5.90413 1.282871,0.1895 3.032243,0.23324 8.251195,0.23324 h 6.633028 v 10.86068 10.86067 h 37.757226 37.757243 v -30.01627 -30.01627 l 1.64733,-1.35576 c 1.93887,-1.60359 7.17241,-6.79339 8.73226,-8.65938 12.91619,-15.45278 18.70368,-35.11861 16.13794,-54.88648 -1.47238,-11.34175 -5.80207,-22.45025 -12.39137,-31.73648 -13.45557,-18.93696 -35.17691,-30.10383 -58.151971,-29.89974 -1.486965,0.0146 -3.017668,0.0437 -3.425854,0.0729 z m -41.809936,78.69257 c -0.262406,4.09644 -3.761146,7.34735 -7.915899,7.36194 -1.035044,0 -2.857305,-0.49566 -3.834037,-1.04963 -1.793104,-1.02047 -3.396692,-3.1926 -3.804879,-5.17522 -0.247826,-1.16624 -0.116624,-3.25091 0.276985,-4.34427 0.568544,-1.60359 1.938884,-3.28007 3.367536,-4.12559 1.209981,-0.72891 2.419962,-1.03505 3.936081,-1.04963 4.791468,-0.0948 8.183483,4.36597 7.974213,8.3824 z" id="head" />
    <path style="display:inline;fill:#ffffff;fill-opacity:1;stroke:#fffffb;stroke-width:0.04116624;stroke-miterlimit:4;stroke-dasharray:none;stroke-opacity:1" d="m 50.839786,130.91325 -0.537149,3.1514 c -0.290451,1.74271 -0.566549,3.26749 -0.610117,3.3982 -0.02904,0.11618 -0.493723,0.37771 -1.04558,0.5665 -0.537333,0.18879 -1.292364,0.49366 -1.669949,0.68245 -0.377586,0.18879 -0.769695,0.29039 -0.871352,0.2323 -0.101659,-0.058 -1.408772,-0.97294 -2.919114,-2.03308 -1.510345,-1.06015 -2.773805,-1.9314 -2.831895,-1.9314 -0.04357,0 -1.161789,1.06005 -2.454295,2.36707 l -2.367286,2.36729 1.989687,2.80275 1.975006,2.80297 -0.667978,1.42317 c -0.363065,0.78422 -0.667982,1.52485 -0.667982,1.64103 0,0.1307 -0.04354,0.26127 -0.116151,0.30483 -0.05809,0.0291 -1.481327,0.30505 -3.151418,0.58098 -1.684614,0.29044 -3.224117,0.56634 -3.456478,0.6099 l -0.392064,0.0872 v 3.39819 3.3984 l 0.319523,0.058 c 0.188794,0.0436 1.699108,0.305 3.383723,0.59545 1.670091,0.29045 3.049675,0.53731 3.064198,0.55182 0.01452,0.0145 0.130687,0.39207 0.275914,0.82775 0.145225,0.43567 0.435677,1.19091 0.653514,1.67015 l 0.392279,0.87136 -2.10584,2.96252 -2.091372,2.96251 2.381753,2.38174 c 1.292505,1.30704 2.425235,2.33827 2.51237,2.30922 0.07261,-0.0291 1.379627,-0.91508 2.889971,-1.97523 l 2.73042,-1.93139 0.972826,0.52268 c 0.522812,0.27593 1.29252,0.62451 1.684629,0.75521 l 0.726267,0.23252 0.493753,2.86082 c 0.261406,1.56843 0.537235,3.16584 0.624369,3.55795 l 0.145296,0.68266 3.354578,-0.0292 3.369259,-0.0434 0.580971,-3.29671 c 0.319496,-1.80079 0.624566,-3.34009 0.682655,-3.39819 0.07263,-0.058 0.653517,-0.31962 1.307027,-0.5665 0.668044,-0.2614 1.408655,-0.55186 1.641018,-0.65352 0.435682,-0.18879 0.493701,-0.14525 3.340118,1.85887 l 2.904437,2.06222 2.41089,-2.41069 2.425155,-2.41068 -1.94608,-2.77382 c -1.074665,-1.51033 -1.945865,-2.80295 -1.945865,-2.86103 0,-0.058 0.251093,-0.69673 0.61416,-1.4519 0.363066,-0.7697 0.65351,-1.4957 0.65351,-1.61189 0,-0.1307 0.145199,-0.27595 0.333991,-0.31951 0.43568,-0.10166 6.842315,-1.43892 6.842315,-1.43892 l -0.02111,-4.15254 v -2.45451 l -3.354566,-0.5663 -3.35479,-0.56629 -0.406529,-1.08919 c -0.217836,-0.59542 -0.522852,-1.36513 -0.697118,-1.68463 l -0.305062,-0.6099 2.091371,-2.94826 2.105628,-2.96251 -2.367081,-2.36707 c -1.292501,-1.29251 -2.41066,-2.35282 -2.468755,-2.35282 -0.07263,0 -1.379781,0.88587 -2.904645,1.96054 l -2.773818,1.94608 -0.609901,-0.34846 c -0.334022,-0.20331 -1.089206,-0.55198 -1.684635,-0.78434 l -1.060047,-0.43568 -0.610116,-3.45627 c -0.334014,-1.90245 -0.609901,-3.47083 -0.609901,-3.49986 -0.01455,-0.0145 -1.539305,-0.0291 -3.398188,-0.0291 z m 2.719147,14.80128 c 1.933833,-0.003 3.815564,0.75603 5.224705,2.17561 1.524872,1.53939 2.178381,3.10778 2.178381,5.24258 0,2.13481 -0.653509,3.70324 -2.178381,5.22811 -1.524864,1.52487 -3.093299,2.17839 -5.228109,2.17839 -2.134813,-0.0145 -3.717713,-0.66799 -5.242579,-2.19285 -1.495821,-1.4813 -2.149391,-3.07884 -2.163913,-5.21365 0,-3.26757 2.018759,-6.05599 5.141104,-7.05805 0.747457,-0.24097 1.512072,-0.35885 2.268792,-0.36014 z" id="cog1" />
    <path style="display:inline;fill:#ffffff;fill-opacity:1;stroke:none;stroke-width:0.01455438" d="m 110.47773,126.54904 c -4.00246,0 -5.18143,0.0436 -5.2251,0.17461 -0.0291,0.10188 -0.42202,2.416 -0.88775,5.13767 -0.4512,2.72167 -0.85876,4.9921 -0.91699,5.03576 -0.0437,0.0437 -0.74222,0.30577 -1.54271,0.56775 -0.80049,0.26197 -1.993987,0.72774 -2.663492,1.03337 l -1.207984,0.55304 -4.36631,-3.08563 c -2.401475,-1.70286 -4.424659,-3.08541 -4.497436,-3.08541 -0.247423,0 -7.437246,7.08791 -7.379028,7.27712 0.04366,0.0874 1.411779,2.05207 3.05642,4.33711 l 2.983724,4.1772 -0.844275,1.71732 c -0.465739,0.93148 -0.989623,2.13964 -1.164275,2.6927 -0.247422,0.72771 -0.407581,1.0042 -0.640451,1.04787 -5.95837,1.13437 -10.753003,1.66223 -10.753003,1.66223 l 0.259344,10.54891 10.141879,2.04542 0.55304,1.58641 c 0.291088,0.88782 0.771549,2.08126 1.048084,2.67799 0.276536,0.58218 0.701003,0.85092 0.701003,0.90914 0,0.0583 -1.368114,2.0521 -3.05642,4.43902 -1.673761,2.37236 -3.085517,4.3663 -3.114623,4.42451 -0.04366,0.0583 1.586454,1.76108 3.59496,3.76957 l 3.682156,3.66788 4.308114,-3.04192 4.322608,-3.02742 1.280902,0.65493 c 0.698609,0.37843 1.906663,0.90241 2.663483,1.1935 l 1.38261,0.52404 0.94596,5.38519 0.94619,5.37048 4.48272,0.0438 6.06659,-7.4e-4 c 0,0 1.60351,-10.34767 1.64716,-10.39132 0.0146,-0.0291 0.62595,-0.2327 1.33911,-0.48012 0.72773,-0.23287 1.95032,-0.69863 2.7217,-1.03338 l 1.41158,-0.59674 4.46823,3.14362 4.46822,3.15832 3.60947,-3.60946 c 1.99396,-1.99394 3.62417,-3.68222 3.62417,-3.76956 0,-0.0727 -1.12078,-1.71748 -2.48889,-3.63865 -1.35356,-1.92119 -2.70712,-3.82784 -2.99821,-4.24992 l -0.50934,-0.75663 0.80034,-1.57192 c 0.43664,-0.85871 0.97518,-2.06671 1.19349,-2.67799 l 0.37844,-1.09158 1.48451,-0.24752 c 0.81503,-0.131 3.1875,-0.53841 5.26877,-0.90227 2.08128,-0.36385 3.82772,-0.65495 3.90048,-0.65495 0.0583,0 0.10191,-2.35781 0.10191,-5.23957 0,-2.88176 -0.0435,-5.23958 -0.0872,-5.23958 -0.1601,0 -10.31904,-1.76113 -10.31904,-1.79022 -0.0146,-0.2911 -1.208,-3.53668 -1.58641,-4.32261 l -0.52405,-1.06259 3.02721,-4.30811 c 1.67376,-2.37237 3.08561,-4.39528 3.14384,-4.51172 0.0873,-0.13098 -0.91693,-1.22259 -3.49305,-3.81327 -1.99396,-1.99396 -3.6969,-3.59508 -3.79879,-3.56597 -0.0873,0.0437 -2.0375,1.38268 -4.3371,2.99822 l -4.16249,2.94001 -1.77574,-0.87326 c -0.97514,-0.48029 -2.13946,-0.98959 -2.57608,-1.12057 -0.43664,-0.14555 -0.84419,-0.30578 -0.91697,-0.34944 -0.0582,-0.0582 -0.49488,-2.35784 -0.97518,-5.12317 -0.48029,-2.75078 -0.9023,-5.15207 -0.94596,-5.34127 l -0.0727,-0.32023 z m -1.0063,27.14854 c 1.40745,-0.002 2.96023,0.39919 4.06271,1.08689 2.19772,1.39722 3.46385,3.71137 3.46385,6.33116 0,2.98365 -1.48442,5.37063 -4.177,6.69509 -3.60948,1.80474 -8.07773,0.2619 -9.86793,-3.42036 -2.15405,-4.39542 0.34933,-9.46027 5.1814,-10.55186 0.41479,-0.0946 0.86782,-0.14024 1.33697,-0.14092 z" id="cog2" />
    <path style="display:inline;fill:#ffffff;fill-opacity:1;stroke:none;stroke-width:0.01451593" d="m 115.49367,196.3453 c -1.01403,-8.2e-4 -2.2582,0.01 -2.2582,0.01 l -0.15416,0.95346 c 0,0 -0.15964,1.08871 -0.33383,2.11934 l -0.33405,1.85801 -1.00152,0.31938 c -0.56612,0.1887 -1.36448,0.508 -1.79997,0.72573 -0.42095,0.21774 -0.85645,0.36292 -0.97258,0.31938 -0.11613,-0.0436 -1.08859,-0.69678 -2.14826,-1.46612 -1.07417,-0.75484 -2.00338,-1.37896 -2.07596,-1.37896 -0.0725,0 -0.85639,0.7403 -1.75637,1.64027 l -1.6258,1.64028 1.45164,2.04684 1.45167,2.06129 -0.60984,1.20479 c -0.31934,0.65321 -0.6677,1.49516 -0.76931,1.84354 l -0.15969,0.65322 -2.612854,0.44994 -2.598191,0.43549 -0.04359,2.35153 c -0.02906,2.13384 -0.01453,2.35167 0.217729,2.42425 0.290321,0.0871 4.485436,0.81291 4.674146,0.81291 0.0726,0 0.20309,0.30471 0.30471,0.68214 0.0871,0.39192 0.4211,1.23393 0.72593,1.88714 l 0.55158,1.19033 -1.50971,2.1338 -1.50971,2.14826 1.6258,1.64049 c 0.89998,0.89997 1.68379,1.64027 1.75638,1.64027 0.0726,0 1.00177,-0.62427 2.07596,-1.39362 l 1.95964,-1.37894 1.33536,0.65321 c 0.7403,0.3629 1.5823,0.69679 1.88714,0.75486 0.29032,0.0435 0.53711,0.11615 0.53711,0.15969 0,0.13065 0.72565,4.45634 0.79824,4.80472 0.0726,0.31934 0.10176,0.31937 2.46784,0.31937 1.32095,0 2.39515,-0.0291 2.39515,-0.0727 0,-0.29031 0.75466,-4.41276 0.85627,-4.64502 0.0871,-0.20323 0.37747,-0.36288 0.85649,-0.49353 0.40645,-0.1016 1.20488,-0.40654 1.78551,-0.68235 1.04514,-0.50805 1.05964,-0.508 1.42253,-0.23218 0.20323,0.14514 1.17575,0.82745 2.1338,1.50971 l 1.75659,1.24837 1.69831,-1.69831 1.69832,-1.69854 -1.43698,-2.0177 -1.43722,-2.03216 0.62431,-1.23392 c 0.33386,-0.68226 0.68222,-1.50968 0.76931,-1.84356 0.13064,-0.47902 0.24669,-0.62406 0.56604,-0.68213 0.60967,-0.13065 4.57264,-0.8129 4.70328,-0.8129 0.0726,0 0.11611,-1.07418 0.11611,-2.39513 0,-2.3661 -4e-5,-2.39506 -0.31938,-2.46764 -0.1887,-0.029 -1.30648,-0.23225 -2.49677,-0.43547 -1.20483,-0.20323 -2.17734,-0.39205 -2.19185,-0.40657 -0.0145,-0.0145 -0.13064,-0.42084 -0.27579,-0.89986 -0.14517,-0.47904 -0.47912,-1.29207 -0.7404,-1.81464 l -0.46461,-0.94347 1.52417,-2.14825 1.52418,-2.16293 -1.65474,-1.65495 c -0.91449,-0.9145 -1.72746,-1.62572 -1.82908,-1.59668 -0.0871,0.0435 -1.03061,0.66776 -2.07575,1.40807 l -1.91607,1.33535 -0.94346,-0.47885 c -0.50806,-0.26129 -1.33555,-0.62426 -1.82908,-0.79845 l -0.89988,-0.30491 -0.43548,-2.52569 -0.45015,-2.54036 -1.69832,-0.0433 c -0.23226,-0.004 -0.54464,-0.005 -0.88265,-0.005 z m -0.33235,11.03834 c 2.11725,-0.0332 4.24165,0.85745 5.65695,2.43787 3.9048,4.34026 1.64019,11.07574 -4.10811,12.28056 -2.99029,0.62419 -6.27079,-0.8855 -7.80947,-3.58546 -2.43868,-4.29672 -0.0145,-9.85646 4.8047,-10.95966 0.47904,-0.10888 0.96734,-0.16567 1.45593,-0.17331 z" id="cog3" />
  </g>
</svg>
